<svg xmlns="http://www.w3.org/2000/svg" xmlns:xlink="http://www.w3.org/1999/xlink" width="1080" zoomAndPan="magnify" viewBox="0 0 810 809.999993" height="1080" preserveAspectRatio="xMidYMid meet" version="1.0"><path fill="#8c52ff" d="M 217.023438 57.171875 C 210.785156 44.699219 198.035156 36.816406 184.089844 36.816406 C 170.144531 36.816406 157.394531 44.699219 151.160156 57.171875 L 136.296875 86.898438 C 124.351562 110.785156 121.671875 115.171875 118.421875 118.421875 C 115.171875 121.671875 110.785156 124.351562 86.898438 136.296875 L 57.171875 151.160156 C 44.699219 157.394531 36.816406 170.144531 36.816406 184.089844 C 36.816406 198.035156 44.699219 210.785156 57.171875 217.023438 L 86.898438 231.886719 C 110.785156 243.828125 115.171875 246.507812 118.421875 249.761719 C 121.671875 253.011719 124.351562 257.394531 136.296875 281.28125 L 151.160156 311.011719 C 157.394531 323.484375 170.144531 331.363281 184.089844 331.363281 C 198.035156 331.363281 210.785156 323.484375 217.023438 311.011719 L 231.886719 281.28125 C 243.828125 257.394531 246.507812 253.011719 249.761719 249.761719 C 253.011719 246.507812 257.394531 243.828125 281.28125 231.886719 L 311.011719 217.023438 C 323.484375 210.785156 331.363281 198.035156 331.363281 184.089844 C 331.363281 170.144531 323.484375 157.394531 311.011719 151.160156 L 281.28125 136.296875 C 257.394531 124.351562 253.011719 121.671875 249.761719 118.421875 C 246.507812 115.171875 243.828125 110.785156 231.886719 86.898438 Z M 217.023438 57.171875 " fill-opacity="1" fill-rule="nonzero"/><path fill="#5ce1e6" d="M 585.203125 130.808594 C 578.964844 118.332031 566.21875 110.453125 552.273438 110.453125 C 538.324219 110.453125 525.578125 118.332031 519.34375 130.808594 L 489.613281 190.261719 C 466.789062 235.914062 458.667969 251.175781 446.96875 262.878906 C 435.269531 274.578125 420.003906 282.699219 374.351562 305.523438 L 314.898438 335.25 C 302.425781 341.488281 294.546875 354.234375 294.546875 368.183594 C 294.546875 382.128906 302.425781 394.875 314.898438 401.113281 L 374.351562 430.84375 C 420.003906 453.667969 435.269531 461.785156 446.96875 473.484375 C 458.667969 485.1875 466.789062 500.449219 489.613281 546.101562 L 519.34375 605.554688 C 525.578125 618.03125 538.324219 625.910156 552.273438 625.910156 C 566.21875 625.910156 578.964844 618.03125 585.203125 605.554688 L 614.933594 546.101562 C 637.757812 500.449219 645.875 485.1875 657.578125 473.484375 C 669.277344 461.785156 684.542969 453.667969 730.191406 430.84375 L 789.648438 401.113281 C 802.121094 394.875 810 382.128906 810 368.183594 C 810 354.234375 802.121094 341.488281 789.648438 335.25 L 730.191406 305.523438 C 684.542969 282.699219 669.277344 274.578125 657.578125 262.878906 C 645.875 251.175781 637.757812 235.914062 614.933594 190.261719 Z M 585.203125 130.808594 " fill-opacity="1" fill-rule="nonzero"/><path fill="#ff2d55" d="M 217.023438 425.351562 C 210.785156 412.878906 198.035156 405 184.089844 405 C 170.144531 405 157.394531 412.878906 151.160156 425.351562 L 145.976562 435.71875 C 123.152344 481.367188 115.03125 496.632812 103.332031 508.332031 C 91.632812 520.03125 76.367188 528.152344 30.71875 550.976562 L 20.351562 556.160156 C 7.878906 562.398438 0 575.144531 0 589.089844 C 0 603.039062 7.878906 615.785156 20.351562 622.019531 L 30.71875 627.203125 C 76.367188 650.027344 91.632812 658.152344 103.332031 669.847656 C 115.03125 681.546875 123.152344 696.8125 145.976562 742.464844 L 151.160156 752.828125 C 157.394531 765.300781 170.144531 773.183594 184.089844 773.183594 C 198.035156 773.183594 210.785156 765.300781 217.023438 752.828125 L 222.203125 742.464844 C 245.03125 696.8125 253.148438 681.546875 264.847656 669.847656 C 276.550781 658.152344 291.816406 650.027344 337.464844 627.203125 L 347.828125 622.019531 C 360.300781 615.785156 368.183594 603.039062 368.183594 589.089844 C 368.183594 575.144531 360.300781 562.398438 347.828125 556.160156 L 337.464844 550.976562 C 291.816406 528.152344 276.550781 520.03125 264.847656 508.332031 C 253.148438 496.632812 245.03125 481.367188 222.203125 435.71875 Z M 217.023438 425.351562 " fill-opacity="1" fill-rule="nonzero"/></svg>